<?xml version="1.0" encoding="UTF-8"?> <svg xmlns="http://www.w3.org/2000/svg" id="Blk" viewBox="0 0 878.69 222.65"><defs><style>.cls-1{fill:#fff;}</style></defs><g id="Light_Blue" data-name="Light Blue"><path class="cls-1" d="M205.29,551.88H123.35L102,607.34H60.66L146.13,392h36.06l85.48,215.38H226.61ZM164,444.84q-11.16,33.41-19.92,55.85l-7.28,18.95h55l-7.28-18.95q-8.66-22.63-19.92-55.85Z" transform="translate(-60.66 -388.67)"></path><path class="cls-1" d="M299.38,607.34V392h57q7.56,0,15.37.48t15.21,1.45q7.41,1,14.33,2.34a103.94,103.94,0,0,1,12.72,3.3,110.07,110.07,0,0,1,30.42,14.8,90.93,90.93,0,0,1,22.13,22.06,95.77,95.77,0,0,1,13.53,28.41,121.18,121.18,0,0,1,4.58,34,131.88,131.88,0,0,1-3.86,32.6A96.55,96.55,0,0,1,469,559.21a88.4,88.4,0,0,1-19.88,22.13A102.51,102.51,0,0,1,420.75,597a151.11,151.11,0,0,1-31.07,7.72,268.25,268.25,0,0,1-39.12,2.58Zm55-32.24q34.65,0,54.17-9.51a58.47,58.47,0,0,0,26.11-24.83q8.87-16.29,8.87-41.59a90.84,90.84,0,0,0-2.9-23.86,65.32,65.32,0,0,0-8.39-18.95,57.71,57.71,0,0,0-13.3-14.26,72.72,72.72,0,0,0-17.65-9.84,94.13,94.13,0,0,0-20.47-5.16,180.91,180.91,0,0,0-25.31-1.61H338.07V575.1Z" transform="translate(-60.66 -388.67)"></path><path class="cls-1" d="M649.52,551.88H567.58l-21.32,55.46H504.88L590.36,392h36.06l85.47,215.38h-41Zm-41.29-107q-11.16,33.41-19.92,55.85L581,519.64h55l-7.28-18.95q-8.65-22.63-19.92-55.85Z" transform="translate(-60.66 -388.67)"></path><path class="cls-1" d="M939.34,500q0,24.54-7,45A99.63,99.63,0,0,1,912,580.21a91.66,91.66,0,0,1-32.88,22.94q-19.49,8.18-44.35,8.18t-44.36-8.18a91.58,91.58,0,0,1-32.88-22.94A99.63,99.63,0,0,1,737.14,545q-7-20.46-7-45t7-45a99.63,99.63,0,0,1,20.38-35.21,91.7,91.7,0,0,1,32.88-22.94q19.49-8.18,44.36-8.18t44.35,8.18A91.79,91.79,0,0,1,912,419.79,99.63,99.63,0,0,1,932.37,455Q939.35,475.46,939.34,500Zm-40.58,0q0-19.58-4.81-34.25t-13.32-24.46a53.38,53.38,0,0,0-20.21-14.6,70.88,70.88,0,0,0-51.33,0,53.3,53.3,0,0,0-20.21,14.6q-8.5,9.78-13.32,24.46T770.75,500q0,19.57,4.81,34.25t13.32,24.38a54.39,54.39,0,0,0,20.21,14.6,69.8,69.8,0,0,0,51.33,0,54.47,54.47,0,0,0,20.21-14.6q8.5-9.71,13.32-24.38T898.76,500Z" transform="translate(-60.66 -388.67)"></path></g></svg> 